<svg width="28" height="24" viewBox="0 0 28 24" fill="none" xmlns="http://www.w3.org/2000/svg">
<path d="M5.65899 11L7.3566 6.5H19.8058L21.5034 11M19.8058 16C19.3555 16 18.9237 15.842 18.6054 15.5607C18.287 15.2794 18.1082 14.8978 18.1082 14.5C18.1082 14.1022 18.287 13.7206 18.6054 13.4393C18.9237 13.158 19.3555 13 19.8058 13C20.256 13 20.6878 13.158 21.0062 13.4393C21.3245 13.7206 21.5034 14.1022 21.5034 14.5C21.5034 14.8978 21.3245 15.2794 21.0062 15.5607C20.6878 15.842 20.256 16 19.8058 16ZM7.3566 16C6.90637 16 6.47457 15.842 6.15621 15.5607C5.83785 15.2794 5.65899 14.8978 5.65899 14.5C5.65899 14.1022 5.83785 13.7206 6.15621 13.4393C6.47457 13.158 6.90637 13 7.3566 13C7.80684 13 8.23863 13.158 8.557 13.4393C8.87536 13.7206 9.05422 14.1022 9.05422 14.5C9.05422 14.8978 8.87536 15.2794 8.557 15.5607C8.23863 15.842 7.80684 16 7.3566 16ZM21.4128 6C21.1865 5.42 20.5527 5 19.8058 5H7.3566C6.60965 5 5.97588 5.42 5.74953 6L3.39551 12V20C3.39551 20.2652 3.51474 20.5196 3.72699 20.7071C3.93923 20.8946 4.22709 21 4.52725 21H5.65899C5.95915 21 6.24701 20.8946 6.45925 20.7071C6.6715 20.5196 6.79073 20.2652 6.79073 20V19H20.3716V20C20.3716 20.2652 20.4909 20.5196 20.7031 20.7071C20.9154 20.8946 21.2032 21 21.5034 21H22.6351C22.9353 21 23.2231 20.8946 23.4354 20.7071C23.6476 20.5196 23.7669 20.2652 23.7669 20V12L21.4128 6Z" fill="#939393"/>
</svg>
