<svg width="8" height="7" viewBox="0 0 8 7" fill="none" xmlns="http://www.w3.org/2000/svg">
<g clip-path="url(#clip0_47_33)">
<path d="M0.666505 1.16667C0.666563 1.06085 0.699521 0.957025 0.761851 0.866331C0.824181 0.775638 0.913534 0.701491 1.02034 0.65183C1.12714 0.60217 1.24737 0.578869 1.36815 0.584422C1.48893 0.589975 1.60571 0.624174 1.70598 0.683355C1.80625 0.742536 1.88623 0.824469 1.93735 0.920378C1.98848 1.01629 2.00882 1.12256 1.9962 1.22781C1.98358 1.33306 1.93848 1.43333 1.86572 1.51787C1.79296 1.6024 1.69529 1.66803 1.58317 1.70772V3.28126H3.74984V1.70772C3.60642 1.65695 3.48764 1.56412 3.41386 1.44513C3.34008 1.32614 3.31589 1.18841 3.34545 1.05552C3.375 0.922645 3.45645 0.802895 3.57584 0.716798C3.69523 0.630701 3.84513 0.583618 3.99984 0.583618C4.15455 0.583618 4.30445 0.630701 4.42384 0.716798C4.54323 0.802895 4.62468 0.922645 4.65423 1.05552C4.68378 1.18841 4.6596 1.32614 4.58582 1.44513C4.51204 1.56412 4.39326 1.65695 4.24984 1.70772V3.28126H5.33317C5.6545 3.28126 5.8705 3.28067 6.0315 3.26201C6.18517 3.24363 6.25117 3.21242 6.29451 3.17451C6.33784 3.13659 6.3735 3.07884 6.39451 2.94409C6.41584 2.80351 6.4165 2.61451 6.4165 2.33334V1.70772C6.27308 1.65695 6.1543 1.56412 6.08053 1.44513C6.00675 1.32614 5.98256 1.18841 6.01211 1.05552C6.04167 0.922645 6.12312 0.802895 6.24251 0.716798C6.3619 0.630701 6.51179 0.583618 6.6665 0.583618C6.82122 0.583618 6.97111 0.630701 7.0905 0.716798C7.20989 0.802895 7.29134 0.922645 7.3209 1.05552C7.35045 1.18841 7.32626 1.32614 7.25248 1.44513C7.17871 1.56412 7.05993 1.65695 6.9165 1.70772V2.34851C6.9165 2.61042 6.9165 2.82917 6.88984 3.00242C6.86184 3.18559 6.79984 3.35097 6.64784 3.48367C6.49617 3.61667 6.30717 3.67092 6.09784 3.69542C5.89984 3.71876 5.65017 3.71876 5.3505 3.71876H4.24984V5.2923C4.39326 5.34306 4.51204 5.4359 4.58582 5.55488C4.6596 5.67387 4.68378 5.81161 4.65423 5.94449C4.62468 6.07737 4.54323 6.19712 4.42384 6.28322C4.30445 6.36931 4.15455 6.4164 3.99984 6.4164C3.84513 6.4164 3.69523 6.36931 3.57584 6.28322C3.45645 6.19712 3.375 6.07737 3.34545 5.94449C3.31589 5.81161 3.34008 5.67387 3.41386 5.55488C3.48764 5.4359 3.60642 5.34306 3.74984 5.2923V3.71876H1.58317V5.2923C1.72659 5.34306 1.84537 5.4359 1.91915 5.55488C1.99293 5.67387 2.01712 5.81161 1.98756 5.94449C1.95801 6.07737 1.87656 6.19712 1.75717 6.28322C1.63778 6.36931 1.48788 6.4164 1.33317 6.4164C1.17846 6.4164 1.02856 6.36931 0.909174 6.28322C0.789784 6.19712 0.708333 6.07737 0.678781 5.94449C0.649228 5.81161 0.673413 5.67387 0.747192 5.55488C0.820971 5.4359 0.93975 5.34306 1.08317 5.2923V1.70772C0.960015 1.66412 0.854552 1.58933 0.780312 1.49293C0.706072 1.39653 0.666442 1.28292 0.666505 1.16667Z" fill="#939393"/>
<path opacity="0.5" fill-rule="evenodd" clip-rule="evenodd" d="M5.75 4.375C5.75 4.31698 5.77634 4.26134 5.82322 4.22032C5.87011 4.1793 5.9337 4.15625 6 4.15625H6.762C7.22033 4.15625 7.58333 4.487 7.58333 4.88542C7.58394 5.03533 7.53176 5.18178 7.43388 5.30483C7.33601 5.42788 7.19721 5.52158 7.03633 5.57317L7.54633 6.30233C7.56349 6.32683 7.57497 6.35404 7.58011 6.38241C7.58525 6.41079 7.58395 6.43977 7.57629 6.46771C7.56863 6.49565 7.55476 6.52199 7.53546 6.54524C7.51617 6.56848 7.49183 6.58817 7.46383 6.60319C7.43584 6.6182 7.40474 6.62824 7.37231 6.63274C7.33988 6.63724 7.30676 6.63611 7.27483 6.6294C7.2429 6.6227 7.2128 6.61056 7.18623 6.59367C7.15966 6.57679 7.13716 6.55549 7.12 6.531L6.479 5.61458H6.25V6.41667C6.25 6.47468 6.22366 6.53032 6.17678 6.57135C6.12989 6.61237 6.0663 6.63542 6 6.63542C5.9337 6.63542 5.87011 6.61237 5.82322 6.57135C5.77634 6.53032 5.75 6.47468 5.75 6.41667V4.375ZM6.25 5.17708H6.762C6.93467 5.17708 7.08333 5.05079 7.08333 4.88542C7.08333 4.72004 6.93467 4.59375 6.762 4.59375H6.25V5.17708Z" fill="#939393"/>
</g>
<defs>
<clipPath id="clip0_47_33">
<rect width="8" height="7" fill="white"/>
</clipPath>
</defs>
</svg>
