<svg width="18" height="19" viewBox="0 0 18 19" fill="none" xmlns="http://www.w3.org/2000/svg">
<path d="M15.7502 16.625L12.4929 13.1868M12.4929 13.1868C13.0501 12.5987 13.492 11.9005 13.7936 11.1321C14.0951 10.3637 14.2503 9.5401 14.2503 8.70837C14.2503 7.87665 14.0951 7.05307 13.7936 6.28465C13.492 5.51624 13.0501 4.81804 12.4929 4.22992C11.9357 3.6418 11.2743 3.17527 10.5463 2.85699C9.81834 2.5387 9.03811 2.37488 8.25015 2.37488C7.4622 2.37488 6.68197 2.5387 5.95399 2.85699C5.22602 3.17527 4.56457 3.6418 4.0074 4.22992C2.88216 5.41768 2.25 7.02863 2.25 8.70837C2.25 10.3881 2.88216 11.9991 4.0074 13.1868C5.13265 14.3746 6.65881 15.0419 8.25015 15.0419C9.84149 15.0419 11.3677 14.3746 12.4929 13.1868Z" stroke="black" stroke-linecap="round" stroke-linejoin="round"/>
</svg>
