<svg width="15" height="15" viewBox="0 0 15 15" fill="none" xmlns="http://www.w3.org/2000/svg">
<path d="M7.5 3.75C7.66576 3.75 7.82473 3.81585 7.94194 3.93306C8.05915 4.05027 8.125 4.20924 8.125 4.375V7.13875L9.43625 7.89625C9.57863 7.97972 9.68221 8.11612 9.7244 8.27568C9.76658 8.43524 9.74394 8.605 9.66142 8.74793C9.5789 8.89086 9.44319 8.99535 9.28392 9.03859C9.12464 9.08184 8.95472 9.06032 8.81125 8.97875L7.1875 8.04125C7.0927 7.98616 7.01398 7.90721 6.95915 7.81225C6.90433 7.7173 6.87532 7.60964 6.875 7.5V4.375C6.875 4.20924 6.94085 4.05027 7.05806 3.93306C7.17527 3.81585 7.33424 3.75 7.5 3.75Z" fill="#939393"/>
<path opacity="0.5" d="M1.25 7.5C1.25 8.73613 1.61656 9.94451 2.30331 10.9723C2.99007 12.0001 3.96619 12.8012 5.10823 13.2742C6.25027 13.7473 7.50693 13.8711 8.71931 13.6299C9.9317 13.3888 11.0453 12.7935 11.9194 11.9194C12.7935 11.0453 13.3888 9.9317 13.6299 8.71931C13.8711 7.50693 13.7473 6.25027 13.2742 5.10823C12.8012 3.96619 12.0001 2.99007 10.9723 2.30331C9.94451 1.61656 8.73613 1.25 7.5 1.25C6.67924 1.25 5.86651 1.41166 5.10823 1.72575C4.34994 2.03984 3.66095 2.50022 3.08058 3.08058C1.90848 4.25269 1.25 5.8424 1.25 7.5ZM6.875 4.375C6.875 4.20924 6.94085 4.05027 7.05806 3.93306C7.17527 3.81585 7.33424 3.75 7.5 3.75C7.66576 3.75 7.82473 3.81585 7.94194 3.93306C8.05915 4.05027 8.125 4.20924 8.125 4.375V7.13875L9.43625 7.89625C9.57863 7.97972 9.68221 8.11612 9.7244 8.27568C9.76658 8.43524 9.74395 8.605 9.66142 8.74793C9.5789 8.89086 9.44319 8.99535 9.28392 9.03859C9.12464 9.08184 8.95472 9.06032 8.81125 8.97875L7.1875 8.04125C7.0927 7.98616 7.01398 7.90721 6.95915 7.81225C6.90433 7.7173 6.87532 7.60964 6.875 7.5V4.375Z" fill="#939393"/>
</svg>
